<svg xmlns="http://www.w3.org/2000/svg" width="291" height="294" viewBox="0 0 291 294"><path d="m145.48 18.18-9-9 9-9 9 9-9 9m0 33-7-7 7-7 7 7-7 7m0 34-6-6 6-6 6 6-6 6m-.5 34-4.5-4.5 4.5-4.5 4.5 4.5-4.5 4.5m.5 35-4-4 4-4 4 4-4 4m-18-120-8-8 8-8 8 8-8 8m.5 34-6.5-6.5 6.5-6.5 6.5 6.5-6.5 6.5m-.5 34-5-5 5-5 5 5-5 5m0 34-4-4 4-4 4 4-4 4m.5 35-3.5-3.5 3.5-3.5 3.5 3.5-3.5 3.5m-17.5-120-7-7 7-7 7 7-7 7m0 34-6-6 6-6 6 6-6 6m-.5 34-4.5-4.5 4.5-4.5 4.5 4.5-4.5 4.5m.5 35-4-4 4-4 4 4-4 4m0 34-3-3 3-3 3 3-3 3m-17.5-120-6.5-6.5 6.5-6.5 6.5 6.5-6.5 6.5m-.5 34-5-5 5-5 5 5-5 5m0 34-4-4 4-4 4 4-4 4m.5 35-3.5-3.5 3.5-3.5 3.5 3.5-3.5 3.5m-.5 35-3-3 3-3 3 3-3 3m-18-121-6-6 6-6 6 6-6 6m.5 34-4.5-4.5 4.5-4.5 4.5 4.5-4.5 4.5m-.5 35-4-4 4-4 4 4-4 4m0 34-3-3 3-3 3 3-3 3m.5 35-2.5-2.5 2.5-2.5 2.5 2.5-2.5 2.5m-17.5-121-5-5 5-5 5 5-5 5m0 34-4-4 4-4 4 4-4 4m-.5 35-3.5-3.5 3.5-3.5 3.5 3.5-3.5 3.5m.5 35-3-3 3-3 3 3-3 3m0 34-2-2 2-2 2 2-2 2m-17.5-121-4.5-4.5 4.5-4.5 4.5 4.5-4.5 4.5m-.5 35-4-4 4-4 4 4-4 4m0 34-3-3 3-3 3 3-3 3m.5 35-2.5-2.5 2.5-2.5 2.5 2.5-2.5 2.5m-.5 35-2-2 2-2 2 2-2 2m-18-122-4-4 4-4 4 4-4 4m.5 35-3.5-3.5 3.5-3.5 3.5 3.5-3.5 3.5m-.5 35-3-3 3-3 3 3-3 3m0 34-2-2 2-2 2 2-2 2m0 36-2-2 2-2 2 2-2 2m-17-122-4-4 4-4 4 4-4 4m0 34-3-3 3-3 3 3-3 3m-.5 35-2.5-2.5 2.5-2.5 2.5 2.5-2.5 2.5m.5 35-2-2 2-2 2 2-2 2m-.5 35-1.5-1.5 1.5-1.5 1.5 1.5-1.5 1.5m159.5-259-8-8 8-8 8 8-8 8m-.5 34-6.5-6.5 6.5-6.5 6.5 6.5-6.5 6.5m.5 34-5-5 5-5 5 5-5 5m0 34-4-4 4-4 4 4-4 4m-.5 35-3.5-3.5 3.5-3.5 3.5 3.5-3.5 3.5m17.5-120-7-7 7-7 7 7-7 7m0 34-6-6 6-6 6 6-6 6m.5 34-4.5-4.5 4.5-4.5 4.5 4.5-4.5 4.5m-.5 35-4-4 4-4 4 4-4 4m0 34-3-3 3-3 3 3-3 3m17.5-120-6.5-6.5 6.5-6.5 6.5 6.5-6.5 6.5m.5 34-5-5 5-5 5 5-5 5m0 34-4-4 4-4 4 4-4 4m-.5 35-3.5-3.5 3.5-3.5 3.5 3.5-3.5 3.5m.5 35-3-3 3-3 3 3-3 3m18-121-6-6 6-6 6 6-6 6m-.5 34-4.5-4.5 4.5-4.5 4.5 4.5-4.5 4.5m.5 35-4-4 4-4 4 4-4 4m0 34-3-3 3-3 3 3-3 3m-.5 35-2.5-2.5 2.5-2.5 2.5 2.5-2.5 2.5m17.5-121-5-5 5-5 5 5-5 5m0 34-4-4 4-4 4 4-4 4m.5 35-3.5-3.5 3.5-3.5 3.5 3.5-3.5 3.5m-.5 35-3-3 3-3 3 3-3 3m0 34-2-2 2-2 2 2-2 2m17.5-121-4.5-4.5 4.5-4.5 4.5 4.5-4.5 4.5m.5 35-4-4 4-4 4 4-4 4m0 34-3-3 3-3 3 3-3 3m-.5 35-2.5-2.5 2.5-2.5 2.5 2.5-2.5 2.5m.5 35-2-2 2-2 2 2-2 2m18-122-4-4 4-4 4 4-4 4m-.5 35-3.5-3.5 3.5-3.5 3.5 3.5-3.5 3.5m.5 35-3-3 3-3 3 3-3 3m0 34-2-2 2-2 2 2-2 2m0 36-2-2 2-2 2 2-2 2m17-122-4-4 4-4 4 4-4 4m0 34-3-3 3-3 3 3-3 3m.5 35-2.5-2.5 2.5-2.5 2.5 2.5-2.5 2.5m-.5 35-2-2 2-2 2 2-2 2m.5 35-1.5-1.5 1.5-1.5 1.5 1.5-1.5 1.5" fill="#DEE0FF" fill-rule="evenodd"></path></svg>